<?xml version="1.0" encoding="utf-8" ?>
<svg xmlns="http://www.w3.org/2000/svg" xmlns:xlink="http://www.w3.org/1999/xlink" width="50" height="50">
	<path fill="#AF4895" transform="scale(0.260417 0.260417)" d="M53.615 16.6223L79.6131 16.4731L87.8063 16.4575C88.3867 16.4721 89.5477 16.3677 90.0572 16.5373C90.1766 16.5771 90.3673 16.7499 90.46 16.8375C92.0042 18.2969 93.3899 20.4502 94.651 22.1601L101.184 30.8031L123.748 60.0396L134.41 73.632L143.669 85.6034L149.375 92.7339C150.047 93.5974 150.884 94.488 150.962 95.625C150.796 96.1443 150.61 96.7043 150.285 97.1478L137.744 113.5L106.653 154.099L95.4254 168.574C93.9242 170.512 92.5478 172.857 90.7883 174.544C88.9758 176.282 81.8892 175.556 79.3054 175.551C75.9409 175.538 41.2336 175.524 40.2544 174.747C45.7435 168.536 50.4359 161.911 55.4055 155.303L69.8968 136.393L93.8682 105.301L99.5084 98.2823C99.9325 97.7196 100.344 97.0968 100.459 96.3888C100.632 95.3162 99.8323 94.151 99.2549 93.2943C97.8389 91.1935 96.1473 89.2568 94.598 87.2521L85.4814 75.4022L57.9058 39.3401L40.8762 16.7355L53.615 16.6223Z"/>
</svg>
